<mxfile host="app.diagrams.net" modified="2024-02-20T04:04:14.940Z" agent="Mozilla/5.0 (Macintosh; Intel Mac OS X 10_15_7) AppleWebKit/537.36 (KHTML, like Gecko) Chrome/121.0.0.0 Safari/537.36" etag="vajDL36ecmuc4FESIH_8" version="23.1.5" type="google">
  <diagram name="Page-1" id="QYq6SarfeICeqgIQHWCM">
    <mxGraphModel grid="1" page="1" gridSize="10" guides="1" tooltips="1" connect="1" arrows="1" fold="1" pageScale="1" pageWidth="850" pageHeight="1100" math="0" shadow="0">
      <root>
        <mxCell id="0" />
        <mxCell id="1" parent="0" />
        <mxCell id="wguHN1SuEuSaOF7pj32z-3" value="API Gateway" style="outlineConnect=0;dashed=0;verticalLabelPosition=bottom;verticalAlign=top;align=center;html=1;shape=mxgraph.aws3.api_gateway;fillColor=#D9A741;gradientColor=none;" vertex="1" parent="1">
          <mxGeometry x="340" y="282.5" width="76.5" height="93" as="geometry" />
        </mxCell>
        <mxCell id="wguHN1SuEuSaOF7pj32z-5" value="Lambda Fuction" style="outlineConnect=0;dashed=0;verticalLabelPosition=bottom;verticalAlign=top;align=center;html=1;shape=mxgraph.aws3.lambda_function;fillColor=#F58534;gradientColor=none;" vertex="1" parent="1">
          <mxGeometry x="490" y="294" width="69" height="72" as="geometry" />
        </mxCell>
        <mxCell id="wguHN1SuEuSaOF7pj32z-6" value="DynamoDB" style="outlineConnect=0;dashed=0;verticalLabelPosition=bottom;verticalAlign=top;align=center;html=1;shape=mxgraph.aws3.dynamo_db;fillColor=#2E73B8;gradientColor=none;" vertex="1" parent="1">
          <mxGeometry x="640" y="288.5" width="72" height="81" as="geometry" />
        </mxCell>
        <mxCell id="wguHN1SuEuSaOF7pj32z-7" value="" style="sketch=0;points=[[0,0,0],[0.25,0,0],[0.5,0,0],[0.75,0,0],[1,0,0],[0,1,0],[0.25,1,0],[0.5,1,0],[0.75,1,0],[1,1,0],[0,0.25,0],[0,0.5,0],[0,0.75,0],[1,0.25,0],[1,0.5,0],[1,0.75,0]];outlineConnect=0;fontColor=#232F3E;fillColor=#DD344C;strokeColor=#ffffff;dashed=0;verticalLabelPosition=bottom;verticalAlign=top;align=center;html=1;fontSize=12;fontStyle=0;aspect=fixed;shape=mxgraph.aws4.resourceIcon;resIcon=mxgraph.aws4.amplify;" vertex="1" parent="1">
          <mxGeometry x="180" y="297.5" width="78" height="78" as="geometry" />
        </mxCell>
        <mxCell id="wguHN1SuEuSaOF7pj32z-8" value="IAM Role" style="outlineConnect=0;dashed=0;verticalLabelPosition=bottom;verticalAlign=top;align=center;html=1;shape=mxgraph.aws3.iam;fillColor=#759C3E;gradientColor=none;" vertex="1" parent="1">
          <mxGeometry x="493.5" y="450" width="42" height="81" as="geometry" />
        </mxCell>
        <mxCell id="wguHN1SuEuSaOF7pj32z-9" value="Amplify" style="text;html=1;align=center;verticalAlign=middle;resizable=0;points=[];autosize=1;strokeColor=none;fillColor=none;" vertex="1" parent="1">
          <mxGeometry x="219" y="366.5" width="60" height="30" as="geometry" />
        </mxCell>
        <mxCell id="wguHN1SuEuSaOF7pj32z-12" value="Actor" style="shape=umlActor;verticalLabelPosition=bottom;verticalAlign=top;html=1;outlineConnect=0;" vertex="1" parent="1">
          <mxGeometry x="70" y="306.5" width="30" height="60" as="geometry" />
        </mxCell>
        <mxCell id="wguHN1SuEuSaOF7pj32z-14" value="" style="shape=flexArrow;endArrow=classic;html=1;rounded=0;endWidth=10;endSize=8.67;width=14;" edge="1" parent="1">
          <mxGeometry width="50" height="50" relative="1" as="geometry">
            <mxPoint x="110" y="336" as="sourcePoint" />
            <mxPoint x="170" y="336" as="targetPoint" />
          </mxGeometry>
        </mxCell>
        <mxCell id="wguHN1SuEuSaOF7pj32z-16" value="" style="shape=flexArrow;endArrow=classic;html=1;rounded=0;endWidth=10;endSize=8.67;width=14;" edge="1" parent="1">
          <mxGeometry width="50" height="50" relative="1" as="geometry">
            <mxPoint x="270" y="336" as="sourcePoint" />
            <mxPoint x="330" y="336" as="targetPoint" />
          </mxGeometry>
        </mxCell>
        <mxCell id="wguHN1SuEuSaOF7pj32z-17" value="" style="shape=flexArrow;endArrow=classic;html=1;rounded=0;endWidth=10;endSize=8.67;width=14;" edge="1" parent="1">
          <mxGeometry width="50" height="50" relative="1" as="geometry">
            <mxPoint x="524" y="390" as="sourcePoint" />
            <mxPoint x="520.7164179104477" y="450" as="targetPoint" />
          </mxGeometry>
        </mxCell>
        <mxCell id="wguHN1SuEuSaOF7pj32z-18" value="" style="shape=flexArrow;endArrow=classic;html=1;rounded=0;endWidth=10;endSize=8.67;width=14;" edge="1" parent="1">
          <mxGeometry width="50" height="50" relative="1" as="geometry">
            <mxPoint x="420" y="336" as="sourcePoint" />
            <mxPoint x="480" y="336" as="targetPoint" />
          </mxGeometry>
        </mxCell>
        <mxCell id="wguHN1SuEuSaOF7pj32z-21" value="" style="shape=flexArrow;endArrow=classic;html=1;rounded=0;endWidth=10;endSize=8.67;width=14;" edge="1" parent="1">
          <mxGeometry width="50" height="50" relative="1" as="geometry">
            <mxPoint x="566" y="330" as="sourcePoint" />
            <mxPoint x="635" y="330" as="targetPoint" />
          </mxGeometry>
        </mxCell>
      </root>
    </mxGraphModel>
  </diagram>
</mxfile>
